# xmcd
#
# Track frame offsets: 
#        150
#        17704
#        34415
#        52739
#        71234
#        94444
#        112271
#        131367
#        150113
#        171606
#        188683
#        211124
#        229677
#
# Disc length: 3067 seconds
#
# Revision: 0
# Processed by: cddbd v1.5.2PL0 Copyright (c) Steve Scherf et al.
# Submitted via: ExactAudioCopy v0.99pb5
#
DISCID=af0bf90d
DTITLE=Carolyn Dawn Johnson - Love Rules
DYEAR=2010
DGENRE=Country
TTITLE0=Let Me Introduce Myself
TTITLE1=The Whole Thing
TTITLE2=I'd Still Have You
TTITLE3=Stop for Me
TTITLE4=Reach You
TTITLE5=Hangin' On
TTITLE6=What If
TTITLE7=Bitterness
TTITLE8=I Just Want My Life Back
TTITLE9=At the Time
TTITLE10=Teach Me
TTITLE11=Love Rules
TTITLE12=All Done
EXTD=
EXTT0=
EXTT1=
EXTT2=
EXTT3=
EXTT4=
EXTT5=
EXTT6=
EXTT7=
EXTT8=
EXTT9=
EXTT10=
EXTT11=
EXTT12=
PLAYORDER=
